# xmcd CD database file
#
# Track frame offsets:
#	150
#	9863
#	20093
#	32105
#	44190
#	54220
#	66152
#	75524
#	88452
#	99458
#	109823
#	119794
#	128960
#	139955
#	149435
#	161203
#	171972
#
# Disc length: 2471 seconds
#
# Revision: 0
# Processed by: cddbd v1.5.2PL0 Copyright (c) Steve Scherf et al.
# Submitted via: CDex 1.77
#
DISCID=fc09a511
DTITLE=Brenda Lee - 1956-1958
DYEAR=1958
DGENRE=Country
TTITLE0=Jambalya
TTITLE1=Bigelow 6200
TTITLE2=Some People
TTITLE3=Cheatin' Heart
TTITLE4=Doodlebug Rag
TTITLE5=One Step At A Time
TTITLE6=Dynamite
TTITLE7=Ain't That Love
TTITLE8=One Teenager To Another
TTITLE9=Rockabye Baby Blues
TTITLE10=Rock the Bop
TTITLE11=Ring-A-My Phone
TTITLE12=Little Jonah
TTITLE13=Rockin' Around The Christmas Tree
TTITLE14=Jump The Broomstick
TTITLE15=Sweet Nuthin's
TTITLE16=Weep No More My Baby
EXTD=YEAR: 1958
EXTT0=
EXTT1=
EXTT2=
EXTT3=
EXTT4=
EXTT5=
EXTT6=
EXTT7=
EXTT8=
EXTT9=
EXTT10=
EXTT11=
EXTT12=
EXTT13=
EXTT14=
EXTT15=
EXTT16=
PLAYORDER=
